# xmcd
#
# Track frame offsets:
#	150
#	22551
#	40838
#	57864
#	77440
#	92679
#	108336
#	128027
#	143668
#	159417
#	181158
#	199190
#	214716
#	234480
#	249368
#	264194
#	283733
#	313708
#
# Disc length: 4197 seconds
#
# Revision: 1
# Processed by: cddbd v1.5.2PL0 Copyright (c) Steve Scherf et al.
# Submitted via: audiograbber 1.83.01
#
DISCID=e0106312
DTITLE=Reba - 5047-02
DYEAR=1900
DGENRE=
TTITLE0=Fancy
TTITLE1=Is there life out there
TTITLE2=For my broken heart
TTITLE3=The night the lights went out in Georgia
TTITLE4=The greatest man I ever knew
TTITLE5=Take it back
TTITLE6=Does he love you
TTITLE7=The heart won't lie
TTITLE8=Why haven't I heard from you
TTITLE9=Fallin out of love
TTITLE10=the heart is a lonely hunter
TTITLE11=They ask about you
TTITLE12=She thinks his name was John
TTITLE13=It's your call
TTITLE14=The fear of being alone
TTITLE15=Starting over again
TTITLE16=Til you love me
TTITLE17=na
EXTD=
EXTT0=
EXTT1=
EXTT2=
EXTT3=
EXTT4=
EXTT5=
EXTT6=
EXTT7=
EXTT8=
EXTT9=
EXTT10=
EXTT11=
EXTT12=
EXTT13=
EXTT14=
EXTT15=
EXTT16=
EXTT17=
PLAYORDER=
